<svg width="127" height="127" viewBox="0 0 127 127" fill="none" xmlns="http://www.w3.org/2000/svg">
<g filter="url(#filter0_d_1544_1456)">
<path fill-rule="evenodd" clip-rule="evenodd" d="M20.1928 23.5995L39.4893 12.1745L56.9799 1.81397C57.1501 1.71486 57.3426 1.66318 57.5383 1.66407C57.734 1.66496 57.9261 1.71839 58.0954 1.81903C58.2647 1.91968 58.4054 2.06404 58.5035 2.23776C58.6016 2.41149 58.6536 2.60852 58.6544 2.80926V120.514C58.6544 120.718 58.6014 120.919 58.501 121.095C58.4005 121.271 58.2563 121.416 58.083 121.516C57.9096 121.616 57.7135 121.667 57.5147 121.664C57.3158 121.66 57.1215 121.603 56.9515 121.497L40.0161 110.956C39.8527 110.853 39.718 110.708 39.6248 110.535C39.5316 110.363 39.4831 110.169 39.4839 109.972V69.9417C39.4835 69.7398 39.4313 69.5416 39.3326 69.367C39.234 69.1923 39.0923 69.0473 38.9218 68.9465C38.7513 68.8457 38.558 68.7926 38.3612 68.7926C38.1644 68.7926 37.971 68.8456 37.8005 68.9464L20.7534 79.0431C20.5828 79.1441 20.4412 79.2895 20.3427 79.4645C20.2443 79.6396 20.1926 79.8382 20.1928 80.0402V97.2059C20.1929 97.408 20.1411 97.6065 20.0426 97.7815C19.944 97.9565 19.8023 98.1017 19.6316 98.2026C19.4609 98.3036 19.2673 98.3566 19.0703 98.3563C18.8733 98.3561 18.6798 98.3026 18.5094 98.2012L4.39454 89.8421C4.22395 89.7416 4.08228 89.5965 3.98385 89.4218C3.88542 89.247 3.83373 89.0487 3.83398 88.8469V33.9509C3.83378 33.7489 3.88548 33.5503 3.98389 33.3753C4.08229 33.2002 4.22393 33.0548 4.39454 32.9538L20.1928 23.5995ZM21.8798 59.6339L38.9287 49.5354L38.9964 49.4879C39.0924 49.4206 39.1836 49.3455 39.2511 49.2497C39.2775 49.2121 39.3067 49.1672 39.3361 49.1154C39.4355 48.9407 39.4883 48.7423 39.4893 48.5401V32.912C39.4888 32.7101 39.4366 32.5119 39.338 32.3372C39.2393 32.1626 39.0976 32.0176 38.9271 31.9168C38.7566 31.816 38.5633 31.7629 38.3665 31.7629C38.1697 31.7629 37.9764 31.8159 37.8058 31.9167L20.7587 42.0134C20.5881 42.1144 20.4465 42.2598 20.3481 42.4348C20.2497 42.6099 20.198 42.8084 20.1982 43.0105V58.6368C20.198 58.8388 20.2496 59.0372 20.3479 59.2122C20.4462 59.3872 20.5877 59.5325 20.7582 59.6336C20.9287 59.7347 21.1221 59.7879 21.319 59.788C21.5159 59.788 21.7093 59.7349 21.8798 59.6339ZM87.9587 12.4328L106.46 23.392L123.273 33.3468C123.444 33.448 123.585 33.5931 123.683 33.7677C123.781 33.9424 123.833 34.1404 123.834 34.3421V89.0761C123.834 89.2754 123.783 89.4712 123.687 89.6444C123.591 89.8176 123.452 89.9623 123.285 90.0642C123.118 90.1662 122.929 90.2219 122.734 90.2261C122.54 90.2302 122.348 90.1825 122.177 90.0878L106.453 80.7807L89.6333 70.8205C89.4627 70.7195 89.2693 70.6664 89.0724 70.6664C88.8755 70.6665 88.6821 70.7197 88.5116 70.8208C88.3412 70.9219 88.1997 71.0672 88.1014 71.2422C88.0031 71.4172 87.9514 71.6157 87.9516 71.8176V109.708C87.9524 109.905 87.9039 110.099 87.8107 110.271C87.7176 110.444 87.5828 110.589 87.4194 110.692L70.2588 121.366C70.0887 121.472 69.8941 121.529 69.6952 121.533C69.4962 121.536 69.2999 121.485 69.1265 121.385C68.9532 121.285 68.8089 121.139 68.7086 120.962C68.6083 120.786 68.5556 120.586 68.5558 120.382V2.93114C68.5563 2.72948 68.6084 2.53148 68.7069 2.357C68.8055 2.18252 68.9471 2.0377 69.1174 1.93705C69.2878 1.83641 69.4809 1.78349 69.6775 1.78359C69.8741 1.7837 70.0672 1.83683 70.2375 1.93766L87.9587 12.4328ZM88.5193 50.4888L104.779 60.1197C104.949 60.2207 105.143 60.2738 105.34 60.2738C105.537 60.2737 105.73 60.2205 105.9 60.1194C106.071 60.0183 106.212 59.873 106.311 59.698C106.409 59.523 106.461 59.3246 106.46 59.1226V43.7201C106.461 43.5182 106.409 43.3199 106.311 43.1451C106.212 42.9704 106.07 42.8254 105.9 42.7248L89.6404 33.0957C89.4698 32.9947 89.2764 32.9416 89.0795 32.9416C88.8826 32.9417 88.6892 32.9949 88.5187 33.096C88.3483 33.1971 88.2068 33.3424 88.1085 33.5174C88.0101 33.6924 87.9585 33.8909 87.9587 34.0928V49.4935C87.9588 49.6953 88.0107 49.8935 88.109 50.0682C88.2074 50.2429 88.3489 50.3879 88.5193 50.4888Z" fill="white"/>
</g>
<defs>
<filter id="filter0_d_1544_1456" x="0.833984" y="0.664062" width="126" height="126" filterUnits="userSpaceOnUse" color-interpolation-filters="sRGB">
<feFlood flood-opacity="0" result="BackgroundImageFix"/>
<feColorMatrix in="SourceAlpha" type="matrix" values="0 0 0 0 0 0 0 0 0 0 0 0 0 0 0 0 0 0 127 0" result="hardAlpha"/>
<feOffset dy="2"/>
<feGaussianBlur stdDeviation="1.5"/>
<feComposite in2="hardAlpha" operator="out"/>
<feColorMatrix type="matrix" values="0 0 0 0 0 0 0 0 0 0 0 0 0 0 0 0 0 0 0.25 0"/>
<feBlend mode="normal" in2="BackgroundImageFix" result="effect1_dropShadow_1544_1456"/>
<feBlend mode="normal" in="SourceGraphic" in2="effect1_dropShadow_1544_1456" result="shape"/>
</filter>
</defs>
</svg>
