<svg width="16" height="17" viewBox="0 0 16 17" fill="none" xmlns="http://www.w3.org/2000/svg">
<path fill-rule="evenodd" clip-rule="evenodd" d="M0 8.52734C0 4.10907 3.58172 0.527344 8 0.527344C12.4183 0.527344 16 4.10907 16 8.52734C16 12.9456 12.4183 16.5273 8 16.5273C3.58172 16.5273 0 12.9456 0 8.52734ZM4.1 7.17735V12.5273H5.8V7.17735H4.1ZM4 5.47734C4 6.02734 4.4 6.42735 4.95 6.42735C5.5 6.42735 5.9 6.02734 5.9 5.47734C5.9 4.92735 5.5 4.52734 4.95 4.52734C4.45 4.52734 4 4.92735 4 5.47734ZM10.3 12.5273H11.9V9.22734C11.9 7.57734 10.9 7.02734 9.95 7.02734C9.1 7.02734 8.5 7.57734 8.35 7.92735V7.17735H6.75V12.5273H8.45V9.67735C8.45 8.92735 8.95 8.52734 9.45 8.52734C9.95 8.52734 10.3 8.77734 10.3 9.62734V12.5273Z" fill="white"/>
</svg>
