<svg width="49" height="47" viewBox="0 0 49 47" fill="none" xmlns="http://www.w3.org/2000/svg">
<g clip-path="url(#clip0_980_5756)">
<path d="M0.710537 46.4856H10.154C12.9785 46.4856 13.4031 43.1247 13.4574 41.7681L11.4108 1.29321C11.3778 0.72858 11.3747 0.29472 11.3741 0.181061H3.8044C3.40136 0.181231 2.99956 0.225906 2.60632 0.314274C0.879771 0.692527 0.13502 1.94767 0 3.72649L0.0134409 45.8837C0 46.2454 0.0720924 46.5082 0.710537 46.4856Z" fill="#D0B6F8"/>
<path d="M0.695499 46.4856H7.83978C9.50495 45.8879 11.0718 44.0096 11.0718 41.7682L11.0639 1.19847C11.0639 0.636908 11.0718 0.267831 11.0718 0.181061H3.7248C3.33024 0.181305 2.93697 0.22599 2.5524 0.314271C0.860367 0.693736 0.131894 1.94884 0 3.72762L0.0128231 45.8837C0 46.2454 0.0702216 46.5082 0.695499 46.4856Z" fill="white"/>
<path d="M18.5423 46.4859H27.6C30.3094 46.4859 30.7185 43.839 30.7686 42.7718L28.804 10.9048C28.7722 10.4601 28.7697 10.1187 28.7691 10.0295H21.5085C21.1229 10.0295 20.7382 10.0645 20.3589 10.1339C18.7031 10.4314 17.9889 11.4204 17.8617 12.8217L17.8696 46.0118C17.8617 46.2971 17.9308 46.5036 18.5423 46.4859Z" fill="#D0B6F8"/>
<path d="M18.5296 46.4859H25.3976C26.9986 46.0155 28.5053 44.5366 28.5053 42.7718L28.4973 10.8297C28.4973 10.388 28.5053 10.0967 28.5053 10.0295H21.44C21.0618 10.0295 20.6843 10.0645 20.3126 10.1339C18.6883 10.4314 17.9879 11.4204 17.8617 12.8217L17.8709 46.0118C17.8629 46.2971 17.9285 46.5036 18.5296 46.4859Z" fill="white"/>
<path d="M35.8523 46.4859H44.9108C47.6205 46.4859 48.0296 43.839 48.0798 42.7718L46.1161 10.9048C46.0843 10.4601 46.0819 10.1187 46.0813 10.0295H38.82C38.4344 10.0295 38.0496 10.0644 37.6703 10.1339C36.0143 10.4314 35.3 11.4204 35.1729 12.8217L35.1832 46.0118C35.1729 46.2971 35.2395 46.5036 35.8523 46.4859Z" fill="#D0B6F8"/>
<path d="M35.8369 46.4859H42.6654C44.2573 46.0155 45.7553 44.5366 45.7553 42.7718L45.7474 10.8297C45.7474 10.388 45.7553 10.0967 45.7553 10.0295H38.73C38.3541 10.0295 37.9791 10.0645 37.6097 10.1339C35.9947 10.4314 35.2983 11.4204 35.1729 12.8217L35.1832 46.0118C35.1741 46.2971 35.2393 46.5036 35.8369 46.4859Z" fill="white"/>
</g>
<defs>
<clipPath id="clip0_980_5756">
<rect width="48.0798" height="46.3059" fill="white" transform="translate(0 0.181061)"/>
</clipPath>
</defs>
</svg>
