<svg width="60" height="60" viewBox="0 0 60 60" fill="none" xmlns="http://www.w3.org/2000/svg">
<path fill-rule="evenodd" clip-rule="evenodd" d="M11.8162 14.1398L19.8564 9.37936L27.1441 5.06246C27.2151 5.02117 27.2953 4.99963 27.3768 5C27.4584 5.00038 27.5384 5.02264 27.609 5.06457C27.6795 5.10651 27.7381 5.16666 27.779 5.23904C27.8199 5.31143 27.8415 5.39352 27.8419 5.47717V54.521C27.8418 54.606 27.8198 54.6895 27.7779 54.7628C27.7361 54.8362 27.676 54.8968 27.6038 54.9385C27.5315 54.9801 27.4498 55.0014 27.367 54.9999C27.2841 54.9985 27.2031 54.9745 27.1323 54.9304L20.0759 50.5385C20.0078 50.4953 19.9517 50.4349 19.9129 50.3631C19.874 50.2912 19.8538 50.2104 19.8542 50.1283V33.449C19.854 33.3649 19.8322 33.2824 19.7911 33.2096C19.75 33.1368 19.691 33.0764 19.6199 33.0344C19.5489 32.9924 19.4683 32.9703 19.3863 32.9703C19.3043 32.9703 19.2238 32.9923 19.1527 33.0343L12.0498 37.2413C11.9787 37.2834 11.9197 37.344 11.8787 37.4169C11.8377 37.4898 11.8161 37.5726 11.8162 37.6568V44.8091C11.8162 44.8933 11.7946 44.9761 11.7536 45.049C11.7125 45.1219 11.6535 45.1824 11.5823 45.2245C11.5112 45.2665 11.4306 45.2886 11.3485 45.2885C11.2664 45.2884 11.1858 45.2661 11.1148 45.2239L5.23356 41.7409C5.16249 41.699 5.10346 41.6386 5.06245 41.5658C5.02143 41.4929 4.99989 41.4103 5 41.3262V18.4529C4.99991 18.3687 5.02146 18.2859 5.06246 18.213C5.10346 18.1401 5.16248 18.0795 5.23356 18.0374L11.8162 14.1398ZM12.5191 29.1541L19.6228 24.9464H19.6206C19.6919 24.9046 19.7512 24.8442 19.7926 24.7714C19.834 24.6986 19.856 24.616 19.8564 24.5317V18.02C19.8562 17.9359 19.8345 17.8533 19.7933 17.7805C19.7522 17.7077 19.6932 17.6473 19.6222 17.6053C19.5511 17.5633 19.4706 17.5412 19.3886 17.5412C19.3066 17.5412 19.226 17.5633 19.155 17.6053L12.052 21.8122C11.9809 21.8543 11.9219 21.9149 11.8809 21.9878C11.8399 22.0608 11.8183 22.1435 11.8184 22.2277V28.7387C11.8183 28.8228 11.8398 28.9055 11.8808 28.9784C11.9218 29.0513 11.9807 29.1119 12.0518 29.154C12.1228 29.1961 12.2034 29.2183 12.2854 29.2183C12.3675 29.2184 12.4481 29.1962 12.5191 29.1541ZM40.052 9.48689L47.7611 14.0532L54.7665 18.201C54.8374 18.2432 54.8962 18.3037 54.9372 18.3764C54.9782 18.4492 54.9999 18.5317 55.0001 18.6158V41.4216C54.9999 41.5047 54.9788 41.5862 54.9388 41.6584C54.8987 41.7306 54.8411 41.7909 54.7715 41.8333C54.7019 41.8758 54.6228 41.899 54.5419 41.9008C54.4609 41.9025 54.3809 41.8826 54.3097 41.8431L47.7581 37.9652L40.7497 33.8151C40.6787 33.773 40.5981 33.7509 40.5161 33.7509C40.434 33.7509 40.3534 33.7731 40.2824 33.8152C40.2114 33.8573 40.1524 33.9179 40.1115 33.9908C40.0705 34.0637 40.049 34.1464 40.0491 34.2306V50.0182C40.0494 50.1004 40.0292 50.1812 39.9904 50.253C39.9515 50.3248 39.8954 50.3852 39.8273 50.4284L32.677 54.8757C32.6062 54.9198 32.5251 54.9438 32.4422 54.9452C32.3593 54.9466 32.2775 54.9253 32.2053 54.8836C32.133 54.8418 32.0729 54.7811 32.0311 54.7076C31.9894 54.6341 31.9674 54.5506 31.9675 54.4655V5.52784C31.9677 5.44382 31.9894 5.36132 32.0304 5.28862C32.0715 5.21592 32.1305 5.15557 32.2015 5.11364C32.2725 5.0717 32.3529 5.04965 32.4349 5.0497C32.5168 5.04974 32.5972 5.07188 32.6682 5.11389L40.052 9.48689ZM40.2856 25.3436L47.0604 29.3564C47.1314 29.3985 47.212 29.4207 47.2941 29.4206C47.3761 29.4206 47.4567 29.3984 47.5277 29.3563C47.5988 29.3142 47.6577 29.2536 47.6987 29.1807C47.7396 29.1078 47.7612 29.0251 47.7611 28.941V22.5232C47.7612 22.4391 47.7396 22.3565 47.6986 22.2837C47.6576 22.2109 47.5986 22.1505 47.5275 22.1085L40.7527 18.0964C40.6817 18.0543 40.6011 18.0322 40.519 18.0322C40.437 18.0322 40.3564 18.0544 40.2854 18.0965C40.2143 18.1387 40.1554 18.1992 40.1144 18.2721C40.0735 18.345 40.0519 18.4277 40.052 18.5119V24.9289C40.0521 25.0129 40.0737 25.0955 40.1147 25.1683C40.1557 25.2411 40.2146 25.3015 40.2856 25.3436Z" fill="white"/>
</svg>
