<svg width="91" height="91" viewBox="0 0 91 91" fill="none" xmlns="http://www.w3.org/2000/svg">
<path d="M32.5143 5.8673L22.2228 11.8078L13.797 16.6716C13.706 16.7241 13.6305 16.7997 13.578 16.8907C13.5255 16.9817 13.4979 17.085 13.498 17.19V45.7334C13.4979 45.8384 13.5255 45.9415 13.578 46.0324C13.6305 46.1232 13.706 46.1986 13.797 46.2509L21.325 50.5973C21.4159 50.65 21.5191 50.6778 21.6242 50.6779C21.7292 50.678 21.8325 50.6505 21.9235 50.598C22.0145 50.5455 22.0901 50.47 22.1427 50.379C22.1952 50.288 22.2229 50.1848 22.2228 50.0798V41.1544C22.2227 41.0493 22.2503 40.9461 22.3028 40.8551C22.3553 40.764 22.4308 40.6885 22.5218 40.6359L31.6137 35.3861C31.7046 35.3337 31.8077 35.3061 31.9127 35.3061C32.0177 35.3061 32.1208 35.3337 32.2117 35.3862C32.3026 35.4386 32.3782 35.514 32.4308 35.6048C32.4834 35.6956 32.5113 35.7986 32.5115 35.9036V56.7175C32.5111 56.82 32.5369 56.9208 32.5866 57.0104C32.6363 57.1 32.7082 57.1754 32.7953 57.2293L41.8276 62.71C41.9183 62.765 42.0219 62.795 42.128 62.7967C42.234 62.7985 42.3386 62.772 42.4311 62.72C42.5235 62.668 42.6004 62.5924 42.654 62.5008C42.7076 62.4093 42.7358 62.3052 42.7358 62.1991V0.997796C42.7354 0.893417 42.7077 0.790971 42.6554 0.700643C42.6031 0.610315 42.528 0.535253 42.4377 0.482921C42.3474 0.43059 42.2449 0.402812 42.1406 0.40235C42.0362 0.401887 41.9335 0.428757 41.8427 0.480287L32.5143 5.8673ZM32.2154 25.2933L23.1226 30.544C23.0316 30.5965 22.9285 30.6242 22.8234 30.6241C22.7184 30.6241 22.6153 30.5964 22.5244 30.5439C22.4334 30.4913 22.358 30.4157 22.3055 30.3248C22.2531 30.2338 22.2256 30.1306 22.2257 30.0256V21.9006C22.2256 21.7955 22.2531 21.6923 22.3056 21.6013C22.3581 21.5103 22.4337 21.4347 22.5246 21.3821L31.6165 16.1323C31.7075 16.0799 31.8106 16.0523 31.9155 16.0524C32.0205 16.0524 32.1236 16.08 32.2145 16.1324C32.3055 16.1848 32.381 16.2602 32.4337 16.351C32.4863 16.4418 32.5141 16.5449 32.5143 16.6498V24.7758C32.5138 24.8809 32.4856 24.9841 32.4327 25.0749C32.3797 25.1657 32.3038 25.241 32.2125 25.2933H32.2154Z" fill="white"/>
<path d="M68.2335 11.7002L58.3659 6.00197L48.9145 0.544951C48.8237 0.492525 48.7207 0.464899 48.6158 0.464844C48.511 0.464789 48.4079 0.492306 48.3171 0.544637C48.2262 0.596967 48.1507 0.67227 48.0982 0.762991C48.0456 0.853712 48.0178 0.956662 48.0176 1.06151V62.1304C48.0174 62.2365 48.0456 62.3408 48.0991 62.4324C48.1526 62.5241 48.2295 62.5999 48.322 62.652C48.4144 62.7041 48.5191 62.7307 48.6252 62.7289C48.7313 62.7272 48.8351 62.6973 48.9258 62.6422L58.0782 57.0924C58.1654 57.0385 58.2372 56.9632 58.2869 56.8736C58.3366 56.784 58.3625 56.6831 58.3621 56.5806V36.8793C58.362 36.7743 58.3895 36.6711 58.4419 36.5802C58.4944 36.4892 58.5698 36.4136 58.6608 36.361C58.7517 36.3085 58.8548 36.2808 58.9598 36.2808C59.0648 36.2808 59.168 36.3084 59.259 36.3609L68.2297 41.5398L76.6158 46.379C76.707 46.4283 76.8094 46.453 76.913 46.4509C77.0166 46.4488 77.1179 46.4198 77.2069 46.3667C77.296 46.3137 77.3697 46.2385 77.421 46.1485C77.4723 46.0584 77.4993 45.9566 77.4995 45.853V17.3938C77.4992 17.2889 77.4715 17.1859 77.419 17.0951C77.3666 17.0043 77.2912 16.9289 77.2005 16.8763L68.2335 11.7002ZM67.3366 30.797L58.6648 25.7893C58.574 25.7369 58.4985 25.6615 58.446 25.5706C58.3936 25.4798 58.3659 25.3767 58.3659 25.2718V17.2642C58.3657 17.1592 58.3933 17.056 58.4457 16.965C58.4982 16.874 58.5736 16.7984 58.6645 16.7459C58.7555 16.6933 58.8586 16.6656 58.9636 16.6656C59.0686 16.6656 59.1718 16.6932 59.2627 16.7457L67.9345 21.7524C68.0255 21.8047 68.1011 21.8801 68.1536 21.971C68.2061 22.0618 68.2336 22.165 68.2335 22.2699V30.2785C68.2336 30.3835 68.2061 30.4867 68.1536 30.5777C68.1012 30.6687 68.0257 30.7443 67.9348 30.7968C67.8439 30.8494 67.7408 30.877 67.6357 30.8771C67.5307 30.8771 67.4276 30.8495 67.3366 30.797Z" fill="white"/>
<path d="M5.868 80.9369H2.22L1.548 82.7969H0.396L3.42 74.4809H4.68L7.692 82.7969H6.54L5.868 80.9369ZM5.556 80.0489L4.044 75.8249L2.532 80.0489H5.556ZM10.1019 77.4449C10.3259 77.0529 10.6539 76.7329 11.0859 76.4849C11.5179 76.2369 12.0099 76.1129 12.5619 76.1129C13.1539 76.1129 13.6859 76.2529 14.1579 76.5329C14.6299 76.8129 15.0019 77.2089 15.2739 77.7209C15.5459 78.2249 15.6819 78.8129 15.6819 79.4849C15.6819 80.1489 15.5459 80.7409 15.2739 81.2609C15.0019 81.7809 14.6259 82.1849 14.1459 82.4729C13.6739 82.7609 13.1459 82.9049 12.5619 82.9049C11.9939 82.9049 11.4939 82.7809 11.0619 82.5329C10.6379 82.2849 10.3179 81.9689 10.1019 81.5849V82.7969H9.00994V73.9169H10.1019V77.4449ZM14.5659 79.4849C14.5659 78.9889 14.4659 78.5569 14.2659 78.1889C14.0659 77.8209 13.7939 77.5409 13.4499 77.3489C13.1139 77.1569 12.7419 77.0609 12.3339 77.0609C11.9339 77.0609 11.5619 77.1609 11.2179 77.3609C10.8819 77.5529 10.6099 77.8369 10.4019 78.2129C10.2019 78.5809 10.1019 79.0089 10.1019 79.4969C10.1019 79.9929 10.2019 80.4289 10.4019 80.8049C10.6099 81.1729 10.8819 81.4569 11.2179 81.6569C11.5619 81.8489 11.9339 81.9449 12.3339 81.9449C12.7419 81.9449 13.1139 81.8489 13.4499 81.6569C13.7939 81.4569 14.0659 81.1729 14.2659 80.8049C14.4659 80.4289 14.5659 79.9889 14.5659 79.4849ZM16.7113 79.4849C16.7113 78.8129 16.8473 78.2249 17.1193 77.7209C17.3913 77.2089 17.7633 76.8129 18.2353 76.5329C18.7153 76.2529 19.2513 76.1129 19.8433 76.1129C20.3553 76.1129 20.8313 76.2329 21.2713 76.4729C21.7113 76.7049 22.0473 77.0129 22.2793 77.3969V73.9169H23.3833V82.7969H22.2793V81.5609C22.0633 81.9529 21.7433 82.2769 21.3193 82.5329C20.8953 82.7809 20.3993 82.9049 19.8313 82.9049C19.2473 82.9049 18.7153 82.7609 18.2353 82.4729C17.7633 82.1849 17.3913 81.7809 17.1193 81.2609C16.8473 80.7409 16.7113 80.1489 16.7113 79.4849ZM22.2793 79.4969C22.2793 79.0009 22.1793 78.5689 21.9793 78.2009C21.7793 77.8329 21.5073 77.5529 21.1633 77.3609C20.8273 77.1609 20.4553 77.0609 20.0473 77.0609C19.6393 77.0609 19.2673 77.1569 18.9313 77.3489C18.5953 77.5409 18.3273 77.8209 18.1273 78.1889C17.9273 78.5569 17.8273 78.9889 17.8273 79.4849C17.8273 79.9889 17.9273 80.4289 18.1273 80.8049C18.3273 81.1729 18.5953 81.4569 18.9313 81.6569C19.2673 81.8489 19.6393 81.9449 20.0473 81.9449C20.4553 81.9449 20.8273 81.8489 21.1633 81.6569C21.5073 81.4569 21.7793 81.1729 21.9793 80.8049C22.1793 80.4289 22.2793 79.9929 22.2793 79.4969ZM25.7927 75.1529C25.5847 75.1529 25.4087 75.0809 25.2647 74.9369C25.1207 74.7929 25.0487 74.6169 25.0487 74.4089C25.0487 74.2009 25.1207 74.0249 25.2647 73.8809C25.4087 73.7369 25.5847 73.6649 25.7927 73.6649C25.9927 73.6649 26.1607 73.7369 26.2967 73.8809C26.4407 74.0249 26.5127 74.2009 26.5127 74.4089C26.5127 74.6169 26.4407 74.7929 26.2967 74.9369C26.1607 75.0809 25.9927 75.1529 25.7927 75.1529ZM26.3207 76.2209V82.7969H25.2287V76.2209H26.3207ZM34.1818 79.2569C34.1818 79.4649 34.1698 79.6849 34.1458 79.9169H28.8898C28.9298 80.5649 29.1498 81.0729 29.5498 81.4409C29.9578 81.8009 30.4498 81.9809 31.0258 81.9809C31.4978 81.9809 31.8898 81.8729 32.2018 81.6569C32.5218 81.4329 32.7458 81.1369 32.8738 80.7689H34.0498C33.8738 81.4009 33.5218 81.9169 32.9938 82.3169C32.4658 82.7089 31.8098 82.9049 31.0258 82.9049C30.4018 82.9049 29.8418 82.7649 29.3458 82.4849C28.8578 82.2049 28.4738 81.8089 28.1938 81.2969C27.9138 80.7769 27.7738 80.1769 27.7738 79.4969C27.7738 78.8169 27.9098 78.2209 28.1818 77.7089C28.4538 77.1969 28.8338 76.8049 29.3218 76.5329C29.8178 76.2529 30.3858 76.1129 31.0258 76.1129C31.6498 76.1129 32.2018 76.2489 32.6818 76.5209C33.1618 76.7929 33.5298 77.1689 33.7858 77.6489C34.0498 78.1209 34.1818 78.6569 34.1818 79.2569ZM33.0538 79.0289C33.0538 78.6129 32.9618 78.2569 32.7778 77.9609C32.5938 77.6569 32.3418 77.4289 32.0218 77.2769C31.7098 77.1169 31.3618 77.0369 30.9778 77.0369C30.4258 77.0369 29.9538 77.2129 29.5618 77.5649C29.1778 77.9169 28.9578 78.4049 28.9018 79.0289H33.0538ZM36.7152 73.9169V82.7969H35.6232V73.9169H36.7152ZM47.3676 76.8809C47.3676 77.5769 47.1276 78.1569 46.6476 78.6209C46.1756 79.0769 45.4516 79.3049 44.4756 79.3049H42.8676V82.7969H41.7756V74.4329H44.4756C45.4196 74.4329 46.1356 74.6609 46.6236 75.1169C47.1196 75.5729 47.3676 76.1609 47.3676 76.8809ZM44.4756 78.4049C45.0836 78.4049 45.5316 78.2729 45.8196 78.0089C46.1076 77.7449 46.2516 77.3689 46.2516 76.8809C46.2516 75.8489 45.6596 75.3329 44.4756 75.3329H42.8676V78.4049H44.4756ZM54.7248 79.2569C54.7248 79.4649 54.7128 79.6849 54.6888 79.9169H49.4328C49.4728 80.5649 49.6928 81.0729 50.0928 81.4409C50.5008 81.8009 50.9928 81.9809 51.5688 81.9809C52.0408 81.9809 52.4328 81.8729 52.7448 81.6569C53.0648 81.4329 53.2888 81.1369 53.4168 80.7689H54.5928C54.4168 81.4009 54.0648 81.9169 53.5368 82.3169C53.0088 82.7089 52.3528 82.9049 51.5688 82.9049C50.9448 82.9049 50.3848 82.7649 49.8888 82.4849C49.4008 82.2049 49.0168 81.8089 48.7368 81.2969C48.4568 80.7769 48.3168 80.1769 48.3168 79.4969C48.3168 78.8169 48.4528 78.2209 48.7248 77.7089C48.9968 77.1969 49.3768 76.8049 49.8648 76.5329C50.3608 76.2529 50.9288 76.1129 51.5688 76.1129C52.1928 76.1129 52.7448 76.2489 53.2248 76.5209C53.7048 76.7929 54.0728 77.1689 54.3288 77.6489C54.5928 78.1209 54.7248 78.6569 54.7248 79.2569ZM53.5968 79.0289C53.5968 78.6129 53.5048 78.2569 53.3208 77.9609C53.1368 77.6569 52.8848 77.4289 52.5648 77.2769C52.2528 77.1169 51.9048 77.0369 51.5208 77.0369C50.9688 77.0369 50.4968 77.2129 50.1048 77.5649C49.7208 77.9169 49.5008 78.4049 49.4448 79.0289H53.5968ZM58.8782 76.1129C59.4462 76.1129 59.9422 76.2369 60.3662 76.4849C60.7982 76.7329 61.1182 77.0449 61.3262 77.4209V76.2209H62.4302V82.9409C62.4302 83.5409 62.3022 84.0729 62.0462 84.5369C61.7902 85.0089 61.4222 85.3769 60.9422 85.6409C60.4702 85.9049 59.9182 86.0369 59.2862 86.0369C58.4222 86.0369 57.7022 85.8329 57.1262 85.4249C56.5502 85.0169 56.2102 84.4609 56.1062 83.7569H57.1862C57.3062 84.1569 57.5542 84.4769 57.9302 84.7169C58.3062 84.9649 58.7582 85.0889 59.2862 85.0889C59.8862 85.0889 60.3742 84.9009 60.7502 84.5249C61.1342 84.1489 61.3262 83.6209 61.3262 82.9409V81.5609C61.1102 81.9449 60.7902 82.2649 60.3662 82.5209C59.9422 82.7769 59.4462 82.9049 58.8782 82.9049C58.2942 82.9049 57.7622 82.7609 57.2822 82.4729C56.8102 82.1849 56.4382 81.7809 56.1662 81.2609C55.8942 80.7409 55.7582 80.1489 55.7582 79.4849C55.7582 78.8129 55.8942 78.2249 56.1662 77.7209C56.4382 77.2089 56.8102 76.8129 57.2822 76.5329C57.7622 76.2529 58.2942 76.1129 58.8782 76.1129ZM61.3262 79.4969C61.3262 79.0009 61.2262 78.5689 61.0262 78.2009C60.8262 77.8329 60.5542 77.5529 60.2102 77.3609C59.8742 77.1609 59.5022 77.0609 59.0942 77.0609C58.6862 77.0609 58.3142 77.1569 57.9782 77.3489C57.6422 77.5409 57.3742 77.8209 57.1742 78.1889C56.9742 78.5569 56.8742 78.9889 56.8742 79.4849C56.8742 79.9889 56.9742 80.4289 57.1742 80.8049C57.3742 81.1729 57.6422 81.4569 57.9782 81.6569C58.3142 81.8489 58.6862 81.9449 59.0942 81.9449C59.5022 81.9449 59.8742 81.8489 60.2102 81.6569C60.5542 81.4569 60.8262 81.1729 61.0262 80.8049C61.2262 80.4289 61.3262 79.9929 61.3262 79.4969ZM70.1076 76.2209V82.7969H69.0156V81.8249C68.8076 82.1609 68.5156 82.4249 68.1396 82.6169C67.7716 82.8009 67.3636 82.8929 66.9156 82.8929C66.4036 82.8929 65.9436 82.7889 65.5356 82.5809C65.1276 82.3649 64.8036 82.0449 64.5636 81.6209C64.3316 81.1969 64.2156 80.6809 64.2156 80.0729V76.2209H65.2956V79.9289C65.2956 80.5769 65.4596 81.0769 65.7876 81.4289C66.1156 81.7729 66.5636 81.9449 67.1316 81.9449C67.7156 81.9449 68.1756 81.7649 68.5116 81.4049C68.8476 81.0449 69.0156 80.5209 69.0156 79.8329V76.2209H70.1076ZM77.9513 79.2569C77.9513 79.4649 77.9393 79.6849 77.9153 79.9169H72.6593C72.6993 80.5649 72.9193 81.0729 73.3193 81.4409C73.7273 81.8009 74.2193 81.9809 74.7953 81.9809C75.2673 81.9809 75.6593 81.8729 75.9713 81.6569C76.2913 81.4329 76.5153 81.1369 76.6433 80.7689H77.8193C77.6433 81.4009 77.2913 81.9169 76.7633 82.3169C76.2353 82.7089 75.5793 82.9049 74.7953 82.9049C74.1713 82.9049 73.6113 82.7649 73.1153 82.4849C72.6273 82.2049 72.2433 81.8089 71.9633 81.2969C71.6833 80.7769 71.5433 80.1769 71.5433 79.4969C71.5433 78.8169 71.6793 78.2209 71.9513 77.7089C72.2233 77.1969 72.6033 76.8049 73.0913 76.5329C73.5873 76.2529 74.1553 76.1129 74.7953 76.1129C75.4193 76.1129 75.9713 76.2489 76.4513 76.5209C76.9313 76.7929 77.2993 77.1689 77.5553 77.6489C77.8193 78.1209 77.9513 78.6569 77.9513 79.2569ZM76.8233 79.0289C76.8233 78.6129 76.7313 78.2569 76.5473 77.9609C76.3633 77.6569 76.1113 77.4289 75.7913 77.2769C75.4793 77.1169 75.1313 77.0369 74.7473 77.0369C74.1953 77.0369 73.7233 77.2129 73.3313 77.5649C72.9473 77.9169 72.7273 78.4049 72.6713 79.0289H76.8233ZM80.4848 77.2889C80.6768 76.9129 80.9488 76.6209 81.3008 76.4129C81.6608 76.2049 82.0968 76.1009 82.6088 76.1009V77.2289H82.3208C81.0968 77.2289 80.4848 77.8929 80.4848 79.2209V82.7969H79.3928V76.2209H80.4848V77.2889ZM86.7373 82.9049C86.1213 82.9049 85.5613 82.7649 85.0573 82.4849C84.5613 82.2049 84.1693 81.8089 83.8813 81.2969C83.6013 80.7769 83.4613 80.1769 83.4613 79.4969C83.4613 78.8249 83.6053 78.2329 83.8933 77.7209C84.1893 77.2009 84.5893 76.8049 85.0933 76.5329C85.5973 76.2529 86.1613 76.1129 86.7853 76.1129C87.4093 76.1129 87.9733 76.2529 88.4773 76.5329C88.9813 76.8049 89.3773 77.1969 89.6653 77.7089C89.9613 78.2209 90.1093 78.8169 90.1093 79.4969C90.1093 80.1769 89.9573 80.7769 89.6533 81.2969C89.3573 81.8089 88.9533 82.2049 88.4413 82.4849C87.9293 82.7649 87.3613 82.9049 86.7373 82.9049ZM86.7373 81.9449C87.1293 81.9449 87.4973 81.8529 87.8413 81.6689C88.1853 81.4849 88.4613 81.2089 88.6693 80.8409C88.8853 80.4729 88.9933 80.0249 88.9933 79.4969C88.9933 78.9689 88.8893 78.5209 88.6813 78.1529C88.4733 77.7849 88.2013 77.5129 87.8653 77.3369C87.5293 77.1529 87.1653 77.0609 86.7733 77.0609C86.3733 77.0609 86.0053 77.1529 85.6693 77.3369C85.3413 77.5129 85.0773 77.7849 84.8773 78.1529C84.6773 78.5209 84.5773 78.9689 84.5773 79.4969C84.5773 80.0329 84.6733 80.4849 84.8653 80.8529C85.0653 81.2209 85.3293 81.4969 85.6573 81.6809C85.9853 81.8569 86.3453 81.9449 86.7373 81.9449Z" fill="white"/>
</svg>
