<svg width="61" height="65" viewBox="0 0 61 65" fill="none" xmlns="http://www.w3.org/2000/svg">
<rect y="0.333984" width="61" height="64" rx="24" fill="#1D7B83"/>
<path d="M23.4293 26.7345C21.6982 27.5995 20.3316 27.9525 18.6575 27.9525C15.2316 27.9525 13.063 25.9758 13.063 22.4455C13.063 18.8625 15.2316 16.8507 18.8396 16.8507C20.301 16.8568 21.7414 17.1889 23.0489 17.8213L22.0468 20.3099C20.6255 19.9569 19.8235 19.7964 18.9854 19.7964C17.382 19.7964 16.5071 20.6613 16.5071 22.4438C16.5253 24.0499 17.4182 25.003 18.8215 25.003C19.9702 25.003 20.7527 24.8442 22.338 24.2793L23.4293 26.7345Z" fill="white"/>
<path d="M32.5713 23.5419C32.5713 26.4032 30.8551 28.0419 27.9467 28.0419C25.0384 28.0419 23.3214 26.4032 23.3214 23.5419C23.3214 20.609 25.0379 18.9537 27.9459 18.9537C30.8538 18.9537 32.5704 20.609 32.5704 23.5419H32.5713ZM29.3729 23.5419C29.3729 22.0126 28.8311 21.5087 27.9459 21.5087C27.0606 21.5087 26.5188 22.0126 26.5188 23.5419C26.5188 24.9996 27.0444 25.4856 27.9459 25.4856C28.8311 25.4856 29.3729 24.9996 29.3729 23.5419Z" fill="white"/>
<path d="M36.3873 16.334H33.0183V27.9522H36.3873V16.334Z" fill="white"/>
<path d="M37.779 19.5958C39.9254 19.0232 40.8169 18.916 41.7084 18.916C44.3462 18.916 45.4578 19.9715 45.4578 22.4941V27.7902H42.1993V26.7703C41.5262 27.5216 40.7622 27.9524 39.7979 27.9524C37.9607 27.9524 36.9056 27.326 36.9056 25.1972C36.9056 23.3544 38.161 22.4954 40.655 22.4954H42.2011C42.2011 21.7441 41.9832 21.3675 41.0917 21.3675C40.4547 21.3675 39.509 21.4929 38.2717 21.7432L37.779 19.5958ZM41.108 24.0151C40.3802 24.0151 39.9611 24.2116 39.9611 24.7842C39.9611 25.3048 40.3431 25.625 40.9069 25.625C41.4362 25.625 41.853 25.3925 42.1984 25.1044V24.0151H41.108Z" fill="white"/>
<path d="M51.5375 38.6299C51.5375 41.8837 49.586 43.7472 46.2787 43.7472C42.9714 43.7472 41.0188 41.8837 41.0188 38.6299C41.0188 35.2947 42.9709 33.4123 46.2777 33.4123C49.5845 33.4123 51.5366 35.2947 51.5366 38.6299H51.5375ZM47.9005 38.6299C47.9005 36.8909 47.2843 36.3178 46.2777 36.3178C45.271 36.3178 44.6549 36.8909 44.6549 38.6299C44.6549 40.2875 45.2526 40.8403 46.2777 40.8403C47.2843 40.8403 47.9005 40.2875 47.9005 38.6299Z" fill="white"/>
<path d="M13.1981 34.4154C13.6912 33.7813 14.2047 33.4538 14.8826 33.4538C14.9743 33.4536 15.0659 33.4604 15.1566 33.4741C16.3092 32.1345 17.5006 31.2042 18.444 30.9368C17.8752 30.5275 17.149 30.334 16.2753 30.334C15.1197 30.334 14.1908 30.7443 13.2001 31.624V30.4997H9.4624V43.5982H11.0065C11.0065 41.0742 11.9324 38.459 13.1981 36.2596V34.4154Z" fill="white"/>
<path d="M18.4432 30.9367C17.5023 31.2041 16.3104 32.1334 15.1558 33.474C15.8845 33.5852 16.2785 34.1726 16.2785 35.3976C16.2785 36.9526 15.7446 37.6279 14.7997 37.6279C14.0396 37.6279 13.6082 37.3212 13.1973 36.7278V36.258C11.9317 38.4574 11.0057 41.0707 11.0057 43.5966H13.1973V39.3535C13.9818 40.194 14.5387 40.6653 16.0663 40.6653C18.1508 40.6653 19.9878 39.1272 19.9878 35.3971C19.9898 33.1163 19.4688 31.675 18.4432 30.9367Z" fill="white"/>
<path d="M29.4342 39.1548V37.5204C29.4342 34.6353 28.1815 33.4282 25.2004 33.4282C24.1942 33.4282 23.1876 33.5512 20.7634 34.2056L21.3202 36.6606C22.7149 36.3743 23.7853 36.2309 24.504 36.2309C25.5107 36.2309 25.7572 36.6606 25.7572 37.5209H24.0109C21.1967 37.5209 19.7796 38.5033 19.7796 40.611C19.7796 43.0461 20.9711 43.7621 23.0456 43.7621C24.1345 43.7621 24.9972 43.2709 25.7572 42.4115V43.578H26.7385L29.4342 39.1548ZM26.7385 43.578H29.4342V39.1548L26.7385 43.578ZM25.7572 40.5083C25.3667 40.8358 24.8945 41.1037 24.2988 41.1037C23.6618 41.1037 23.2304 40.735 23.2304 40.1416C23.2304 39.4872 23.7031 39.2619 24.5255 39.2619H25.7577L25.7572 40.5083Z" fill="white"/>
<path d="M40.5517 40.6633V34.1994H36.8334V35.2022C35.765 34.4043 34.8819 34.0154 33.7951 34.0154C31.3504 34.0154 30.0977 35.55 30.0977 38.9059C30.0977 42.0982 31.4924 43.735 33.8155 43.735C35.2331 43.735 35.9727 43.4869 36.8354 42.6708C36.7737 44.4718 36.0957 45.0449 34.7813 45.0449C33.7746 45.0449 32.4402 44.84 31.3943 44.6147L30.9011 47.0498C32.113 47.541 33.6949 47.8273 35.3177 47.8273C36.6815 47.8273 37.7763 47.5931 38.6051 47.0771C39.9106 46.2649 40.5567 44.7546 40.5567 42.3636V40.6633H40.5517ZM36.8384 40.1334C36.3453 40.6246 35.9344 40.8702 35.236 40.8702C34.2707 40.8702 33.7572 40.379 33.7572 38.9059C33.7572 37.5961 34.209 37.1257 35.1743 37.1257C35.7909 37.1257 36.2631 37.3917 36.8384 37.9236V40.1334Z" fill="white"/>
</svg>
