<svg width="51" height="54" viewBox="0 0 51 54" fill="none" xmlns="http://www.w3.org/2000/svg">
<rect y="0.914978" width="50.6784" height="52.838" rx="19.939" fill="#00326F"/>
<rect x="15.3606" y="17.1976" width="4.30447" height="4.30447" rx="1.36961" fill="#114888" stroke="white" stroke-width="0.391316"/>
<rect x="23.1868" y="17.1977" width="4.30447" height="4.30447" rx="1.36961" fill="#098048" stroke="white" stroke-width="0.391316"/>
<rect x="31.0131" y="17.1977" width="4.30447" height="4.30447" rx="1.36961" fill="#E3383E" stroke="white" stroke-width="0.391316"/>
<path d="M14.7948 31.9106C14.7948 32.6035 14.7071 33.2337 14.5318 33.8014C14.3565 34.3607 14.0936 34.8449 13.7429 35.254C13.4007 35.663 12.9707 35.9761 12.4532 36.1931C11.9439 36.4102 11.3512 36.5187 10.675 36.5187C9.97378 36.5187 9.36437 36.4102 8.84679 36.1931C8.32921 35.9677 7.89928 35.6547 7.55701 35.254C7.21474 34.8449 6.96013 34.3566 6.79316 33.7889C6.6262 33.2212 6.54272 32.5909 6.54272 31.8981C6.54272 30.9798 6.69299 30.1784 6.99352 29.4938C7.29405 28.8093 7.74902 28.275 8.35843 27.891C8.97619 27.507 9.75256 27.315 10.6875 27.315C11.5808 27.315 12.3321 27.507 12.9415 27.891C13.5509 28.2666 14.0101 28.8009 14.319 29.4938C14.6362 30.1784 14.7948 30.9839 14.7948 31.9106ZM7.73232 31.9106C7.73232 32.6619 7.83667 33.3089 8.04538 33.8515C8.25408 34.3941 8.57548 34.8115 9.00958 35.1037C9.45203 35.3959 10.0072 35.542 10.675 35.542C11.3512 35.542 11.9022 35.3959 12.3279 35.1037C12.762 34.8115 13.0834 34.3941 13.2921 33.8515C13.5008 33.3089 13.6052 32.6619 13.6052 31.9106C13.6052 30.7836 13.3714 29.9029 12.904 29.2684C12.4365 28.6256 11.6977 28.3042 10.6875 28.3042C10.0113 28.3042 9.45203 28.4503 9.00958 28.7425C8.57548 29.0263 8.25408 29.4395 8.04538 29.9822C7.83667 30.5165 7.73232 31.1593 7.73232 31.9106ZM19.1556 27.4527C20.3243 27.4527 21.1758 27.6823 21.7101 28.1414C22.2444 28.6006 22.5115 29.2475 22.5115 30.0824C22.5115 30.4497 22.4489 30.8045 22.3237 31.1467C22.2068 31.4807 22.0107 31.7812 21.7352 32.0483C21.4597 32.3155 21.0924 32.5283 20.6332 32.6869C20.1741 32.8372 19.6106 32.9123 18.9427 32.9123H17.9159V36.3935H16.7889V27.4527H19.1556ZM19.0554 28.4169H17.9159V31.9481H18.8175C19.3852 31.9481 19.8569 31.8897 20.2325 31.7728C20.6082 31.6476 20.8878 31.4514 21.0715 31.1843C21.2552 30.9172 21.347 30.5665 21.347 30.1324C21.347 29.5564 21.1633 29.1265 20.796 28.8427C20.4287 28.5588 19.8485 28.4169 19.0554 28.4169ZM26.8501 27.4527C27.593 27.4527 28.2024 27.5487 28.6783 27.7407C29.1625 27.9244 29.5214 28.204 29.7552 28.5797C29.9889 28.9554 30.1058 29.427 30.1058 29.9947C30.1058 30.4705 30.0182 30.8671 29.8428 31.1843C29.6675 31.5015 29.4421 31.7561 29.1667 31.9481C28.8995 32.1318 28.6157 32.2779 28.3151 32.3864L30.7695 36.3935H29.4547L27.2883 32.6995H25.5102V36.3935H24.3832V27.4527H26.8501ZM26.7874 28.4294H25.5102V31.7478H26.8501C27.3342 31.7478 27.7308 31.6852 28.0397 31.56C28.3485 31.4264 28.5739 31.2344 28.7159 30.9839C28.8661 30.7335 28.9413 30.4204 28.9413 30.0448C28.9413 29.6524 28.8619 29.3394 28.7033 29.1056C28.5531 28.8719 28.3193 28.7007 28.0021 28.5922C27.6849 28.4837 27.28 28.4294 26.7874 28.4294ZM37.1817 36.3935H32.1854V27.4527H37.1817V28.442H33.3123V31.2344H36.9563V32.2111H33.3123V35.4042H37.1817V36.3935ZM41.986 36.3935H40.859V28.442H38.0665V27.4527H44.7659V28.442H41.986V36.3935Z" fill="white"/>
</svg>
