<svg width="16" height="17" viewBox="0 0 16 17" fill="none" xmlns="http://www.w3.org/2000/svg">
<path d="M9.3 8.52734L7.2 7.32734V9.72734L9.3 8.52734Z" fill="white"/>
<path fill-rule="evenodd" clip-rule="evenodd" d="M0 8.52734C0 4.10907 3.58172 0.527344 8 0.527344C12.4183 0.527344 16 4.10907 16 8.52734C16 12.9456 12.4183 16.5273 8 16.5273C3.58172 16.5273 0 12.9456 0 8.52734ZM11.1 5.87734C11.45 5.97734 11.7 6.22734 11.8 6.57734C12 7.22734 12 8.52734 12 8.52734C12 8.52734 12 9.82734 11.85 10.4773C11.75 10.8273 11.5 11.0773 11.15 11.1773C10.5 11.3273 8 11.3273 8 11.3273C8 11.3273 5.45 11.3273 4.85 11.1773C4.5 11.0773 4.25 10.8273 4.15 10.4773C4 9.82734 4 8.52734 4 8.52734C4 8.52734 4 7.22734 4.1 6.57734C4.2 6.22734 4.45 5.97734 4.8 5.87734C5.45 5.72734 7.95 5.72734 7.95 5.72734C7.95 5.72734 10.5 5.72734 11.1 5.87734Z" fill="white"/>
</svg>
