<svg width="121" height="121" viewBox="0 0 121 121" fill="none" xmlns="http://www.w3.org/2000/svg">
<path fill-rule="evenodd" clip-rule="evenodd" d="M16.4688 22.6005L35.7652 11.1755L53.2558 0.814943C53.426 0.715839 53.6185 0.664161 53.8142 0.66505C54.0099 0.665939 54.202 0.719363 54.3714 0.82001C54.5407 0.920656 54.6814 1.06502 54.7795 1.23874C54.8775 1.41246 54.9296 1.60949 54.9304 1.81024V119.515C54.9303 119.719 54.8773 119.92 54.7769 120.096C54.6765 120.272 54.5322 120.417 54.3589 120.517C54.1856 120.617 53.9894 120.668 53.7906 120.665C53.5918 120.661 53.3974 120.604 53.2274 120.498L36.2921 109.957C36.1287 109.854 35.9939 109.709 35.9008 109.536C35.8076 109.364 35.7591 109.17 35.7599 108.973V68.9427C35.7594 68.7408 35.7073 68.5426 35.6086 68.368C35.5099 68.1933 35.3683 68.0483 35.1978 67.9475C35.0273 67.8467 34.8339 67.7936 34.6371 67.7936C34.4403 67.7936 34.247 67.8466 34.0765 67.9474L17.0293 78.0441C16.8587 78.1451 16.7171 78.2905 16.6187 78.4655C16.5203 78.6406 16.4686 78.8391 16.4688 79.0412V96.2069C16.4689 96.409 16.417 96.6075 16.3185 96.7825C16.22 96.9575 16.0782 97.1027 15.9075 97.2036C15.7369 97.3045 15.5433 97.3575 15.3463 97.3573C15.1493 97.357 14.9558 97.3035 14.7854 97.2022L0.670477 88.8431C0.499891 88.7425 0.358222 88.5975 0.259794 88.4228C0.161366 88.248 0.109668 88.0497 0.109925 87.8478V32.9519C0.109717 32.7498 0.161419 32.5513 0.259827 32.3762C0.358235 32.2012 0.499873 32.0558 0.670477 31.9548L16.4688 22.6005ZM18.1558 58.6349L35.2047 48.5364H35.1993C35.3704 48.4359 35.5128 48.2911 35.6121 48.1164C35.7114 47.9417 35.7642 47.7433 35.7652 47.5411V31.9129C35.7647 31.7111 35.7126 31.5129 35.6139 31.3382C35.5153 31.1636 35.3736 31.0186 35.2031 30.9178C35.0326 30.8169 34.8392 30.7639 34.6424 30.7639C34.4456 30.7638 34.2523 30.8169 34.0818 30.9176L17.0347 41.0143C16.8641 41.1154 16.7224 41.2607 16.624 41.4358C16.5256 41.6108 16.4739 41.8094 16.4741 42.0115V57.6378C16.4739 57.8397 16.5255 58.0382 16.6239 58.2132C16.7222 58.3882 16.8637 58.5335 17.0341 58.6346C17.2046 58.7357 17.398 58.7889 17.5949 58.789C17.7918 58.789 17.9852 58.7359 18.1558 58.6349ZM84.2346 11.4338L102.736 22.393L119.549 32.3478C119.719 32.4489 119.861 32.5941 119.959 32.7687C120.057 32.9433 120.109 33.1414 120.11 33.3431V88.0771C120.11 88.2764 120.059 88.4722 119.963 88.6454C119.867 88.8186 119.728 88.9632 119.561 89.0652C119.394 89.1672 119.205 89.2229 119.01 89.227C118.816 89.2312 118.624 89.1835 118.453 89.0887L102.729 79.7817L85.9092 69.8215C85.7387 69.7205 85.5453 69.6674 85.3484 69.6674C85.1515 69.6675 84.958 69.7207 84.7876 69.8218C84.6171 69.9229 84.4756 70.0682 84.3773 70.2432C84.279 70.4182 84.2273 70.6166 84.2275 70.8186V108.709C84.2284 108.906 84.1799 109.1 84.0867 109.272C83.9935 109.445 83.8588 109.59 83.6954 109.693L66.5347 120.367C66.3646 120.473 66.1701 120.53 65.9711 120.534C65.7721 120.537 65.5759 120.486 65.4025 120.386C65.2291 120.285 65.0849 120.14 64.9846 119.963C64.8843 119.787 64.8315 119.587 64.8318 119.382V1.93211C64.8322 1.73046 64.8843 1.53246 64.9829 1.35798C65.0814 1.1835 65.223 1.03868 65.3933 0.938032C65.5637 0.837388 65.7569 0.784464 65.9535 0.78457C66.1501 0.784677 66.3432 0.837809 66.5134 0.938637L84.2346 11.4338ZM84.7952 49.4898L101.055 59.1207C101.225 59.2217 101.419 59.2748 101.616 59.2748C101.812 59.2747 102.006 59.2215 102.176 59.1204C102.347 59.0193 102.488 58.874 102.587 58.699C102.685 58.524 102.737 58.3255 102.736 58.1236V42.7211C102.737 42.5192 102.685 42.3209 102.586 42.1461C102.488 41.9714 102.346 41.8263 102.176 41.7258L85.9163 32.0967C85.7458 31.9957 85.5523 31.9426 85.3555 31.9426C85.1586 31.9427 84.9651 31.9959 84.7947 32.097C84.6242 32.1981 84.4827 32.3434 84.3844 32.5184C84.2861 32.6934 84.2344 32.8918 84.2346 33.0938V48.4945C84.2347 48.6963 84.2866 48.8944 84.385 49.0691C84.4834 49.2438 84.6249 49.3889 84.7952 49.4898Z" fill="white"/>
</svg>
