<svg width="16" height="17" viewBox="0 0 16 17" fill="none" xmlns="http://www.w3.org/2000/svg">
<path fill-rule="evenodd" clip-rule="evenodd" d="M8 0.527344C3.58172 0.527344 0 4.10907 0 8.52734C0 12.9456 3.58172 16.5273 8 16.5273C12.4183 16.5273 16 12.9456 16 8.52734C16 4.10907 12.4183 0.527344 8 0.527344ZM7.99992 8.45689L3.20195 6.05788C3.23813 5.42765 3.76066 4.92773 4.39995 4.92773H11.5999C12.2392 4.92773 12.7617 5.42763 12.7979 6.05785L7.99992 8.45689ZM7.99992 9.79854L12.7999 7.3985V10.9278C12.7999 11.5905 12.2627 12.1278 11.5999 12.1278H4.39995C3.73721 12.1278 3.19995 11.5905 3.19995 10.9278V7.39853L7.99992 9.79854Z" fill="white"/>
</svg>
