<svg width="17" height="16" viewBox="0 0 17 16" fill="none" xmlns="http://www.w3.org/2000/svg">
<path d="M8.79999 1.59998C9.24181 1.59998 9.59999 1.95815 9.59999 2.39998V3.19998C9.59999 3.6418 9.24181 3.99998 8.79999 3.99998C8.35816 3.99998 7.99999 3.6418 7.99999 3.19998V2.39998C7.99999 1.95815 8.35816 1.59998 8.79999 1.59998Z" fill="white"/>
<path d="M12 7.99998C12 9.76729 10.5673 11.2 8.79999 11.2C7.03268 11.2 5.59999 9.76729 5.59999 7.99998C5.59999 6.23266 7.03268 4.79998 8.79999 4.79998C10.5673 4.79998 12 6.23266 12 7.99998Z" fill="white"/>
<path d="M11.6285 11.9597L12.1941 12.5254C12.5066 12.8378 13.0131 12.8378 13.3255 12.5254C13.6379 12.213 13.6379 11.7065 13.3255 11.3941L12.7598 10.8284C12.4474 10.516 11.9409 10.516 11.6285 10.8284C11.316 11.1408 11.316 11.6473 11.6285 11.9597Z" fill="white"/>
<path d="M13.3254 3.47445C13.6379 3.78687 13.6379 4.2934 13.3254 4.60582L12.7598 5.17151C12.4473 5.48393 11.9408 5.48393 11.6284 5.17151C11.316 4.85909 11.316 4.35256 11.6284 4.04014L12.1941 3.47445C12.5065 3.16203 13.013 3.16203 13.3254 3.47445Z" fill="white"/>
<path d="M14.4 8.79998C14.8418 8.79998 15.2 8.4418 15.2 7.99998C15.2 7.55815 14.8418 7.19998 14.4 7.19998H13.6C13.1582 7.19998 12.8 7.55815 12.8 7.99998C12.8 8.4418 13.1582 8.79998 13.6 8.79998H14.4Z" fill="white"/>
<path d="M8.79999 12C9.24181 12 9.59999 12.3581 9.59999 12.8V13.6C9.59999 14.0418 9.24181 14.4 8.79999 14.4C8.35816 14.4 7.99999 14.0418 7.99999 13.6V12.8C7.99999 12.3581 8.35816 12 8.79999 12Z" fill="white"/>
<path d="M4.84023 5.17152C5.15265 5.48394 5.65919 5.48394 5.97161 5.17152C6.28402 4.8591 6.28402 4.35257 5.97161 4.04015L5.40592 3.47446C5.0935 3.16204 4.58697 3.16204 4.27455 3.47446C3.96213 3.78688 3.96213 4.29342 4.27455 4.60583L4.84023 5.17152Z" fill="white"/>
<path d="M5.97153 11.9597L5.40585 12.5254C5.09343 12.8378 4.58689 12.8378 4.27447 12.5254C3.96206 12.213 3.96206 11.7065 4.27447 11.394L4.84016 10.8284C5.15258 10.5159 5.65911 10.5159 5.97153 10.8284C6.28395 11.1408 6.28395 11.6473 5.97153 11.9597Z" fill="white"/>
<path d="M3.99999 8.79998C4.44181 8.79998 4.79999 8.4418 4.79999 7.99998C4.79999 7.55815 4.44181 7.19998 3.99999 7.19998H3.19999C2.75816 7.19998 2.39999 7.55815 2.39999 7.99998C2.39999 8.4418 2.75816 8.79998 3.19999 8.79998H3.99999Z" fill="white"/>
</svg>
